<svg viewBox="0 0 88 128" xmlns="http://www.w3.org/2000/svg" id="technology">
  <g id="shapes">
    <path fill="#e040fb" d="m0.98,91.86c4.35,20.63 22.63,36.14 44.53,36.14 21.9,0 40.18-15.51 44.53-36.14-4.87,7.66-22.96,13.35-44.53,13.35-21.57,0-39.66-5.69-44.53-13.35z"/>
    <path fill="#8a40fb" d="m4.5,64.58c-2.78,6.65-4.5,12.75-4.5,17.65 0,9.59 20.37,17.35 45.51,17.35 25.14,0 45.51-7.77 45.51-17.35 0-4.9-1.72-11-4.5-17.65-0.87,8.36-18.9,15.03-41.01,15.03-22.11,0-40.15-6.67-41.01-15.03z"/>
    <path fill="#5a40fb" d="m15.83,42.87c-2.73,4.6-5.34,9.26-7.65,13.86-0.52,1.03-0.7,1.82-0.7,2.77 0,8.01 17.02,14.51 38.02,14.51 21,0 38.02-6.49 38.02-14.51 0-0.95-0.17-1.74-0.69-2.77-2.31-4.6-4.92-9.28-7.65-13.86-0.27,6.16-13.45,11.12-29.68,11.12-16.23,0-29.41-4.96-29.68-11.12z"/>
    <path fill="#407efb" d="m29.06,22.36c-2.89,4.17-5.94,8.76-8.98,13.54-0.52,0.82-0.81,1.63-0.81,2.48 0,5.5 11.7,10 26.23,10 14.49,0 26.23-4.47 26.23-10 0-0.85-0.28-1.66-0.8-2.48-3.05-4.8-6.1-9.37-8.98-13.54-0.57,3.27-7.73,5.86-16.45,5.86-8.72,0-15.88-2.59-16.45-5.86z"/>
    <path fill="#40c4ff" d="m45.51,0c0,0-5.41,6.81-12.31,16.48-0.27,0.38-0.44,0.84-0.44,1.28 0,2.69 5.7,4.87 12.75,4.87 7.05,0 12.75-2.18 12.75-4.87 0-0.44-0.17-0.9-0.44-1.28-6.91-9.67-12.31-16.48-12.31-16.48z"/>
  </g>
</svg>